<svg width="215" height="32" viewBox="0 0 215 32" fill="none" xmlns="http://www.w3.org/2000/svg">
<path d="M59.5664 16.7695H52.6992V24H49.7344V6.9375H60.5742V9.32812H52.6992V14.4023H59.5664V16.7695ZM65.6836 24H62.8359V11.3203H65.6836V24ZM62.6602 8.02734C62.6602 7.58984 62.7969 7.22656 63.0703 6.9375C63.3516 6.64844 63.75 6.50391 64.2656 6.50391C64.7812 6.50391 65.1797 6.64844 65.4609 6.9375C65.7422 7.22656 65.8828 7.58984 65.8828 8.02734C65.8828 8.45703 65.7422 8.81641 65.4609 9.10547C65.1797 9.38672 64.7812 9.52734 64.2656 9.52734C63.75 9.52734 63.3516 9.38672 63.0703 9.10547C62.7969 8.81641 62.6602 8.45703 62.6602 8.02734ZM71.4375 11.3203L71.5195 12.7852C72.457 11.6523 73.6875 11.0859 75.2109 11.0859C77.8516 11.0859 79.1953 12.5977 79.2422 15.6211V24H76.3945V15.7852C76.3945 14.9805 76.2188 14.3867 75.8672 14.0039C75.5234 13.6133 74.957 13.418 74.168 13.418C73.0195 13.418 72.1641 13.9375 71.6016 14.9766V24H68.7539V11.3203H71.4375ZM81.6211 17.5664C81.6211 15.6133 82.0742 14.0469 82.9805 12.8672C83.8867 11.6797 85.1016 11.0859 86.625 11.0859C87.9688 11.0859 89.0547 11.5547 89.8828 12.4922V6H92.7305V24H90.1523L90.0117 22.6875C89.1602 23.7188 88.0234 24.2344 86.6016 24.2344C85.1172 24.2344 83.9141 23.6367 82.9922 22.4414C82.0781 21.2461 81.6211 19.6211 81.6211 17.5664ZM84.4688 17.8125C84.4688 19.1016 84.7148 20.1094 85.207 20.8359C85.707 21.5547 86.4141 21.9141 87.3281 21.9141C88.4922 21.9141 89.3438 21.3945 89.8828 20.3555V14.9414C89.3594 13.9258 88.5156 13.418 87.3516 13.418C86.4297 13.418 85.7188 13.7852 85.2188 14.5195C84.7188 15.2461 84.4688 16.3438 84.4688 17.8125ZM104.355 11.3203L104.438 12.6445C105.328 11.6055 106.547 11.0859 108.094 11.0859C109.789 11.0859 110.949 11.7344 111.574 13.0312C112.496 11.7344 113.793 11.0859 115.465 11.0859C116.863 11.0859 117.902 11.4727 118.582 12.2461C119.27 13.0195 119.621 14.1602 119.637 15.668V24H116.789V15.75C116.789 14.9453 116.613 14.3555 116.262 13.9805C115.91 13.6055 115.328 13.418 114.516 13.418C113.867 13.418 113.336 13.5938 112.922 13.9453C112.516 14.2891 112.23 14.7422 112.066 15.3047L112.078 24H109.23V15.6562C109.191 14.1641 108.43 13.418 106.945 13.418C105.805 13.418 104.996 13.8828 104.52 14.8125V24H101.672V11.3203H104.355ZM128.145 24.2344C126.34 24.2344 124.875 23.668 123.75 22.5352C122.633 21.3945 122.074 19.8789 122.074 17.9883V17.6367C122.074 16.3711 122.316 15.2422 122.801 14.25C123.293 13.25 123.98 12.4727 124.863 11.918C125.746 11.3633 126.73 11.0859 127.816 11.0859C129.543 11.0859 130.875 11.6367 131.812 12.7383C132.758 13.8398 133.23 15.3984 133.23 17.4141V18.5625H124.945C125.031 19.6094 125.379 20.4375 125.988 21.0469C126.605 21.6562 127.379 21.9609 128.309 21.9609C129.613 21.9609 130.676 21.4336 131.496 20.3789L133.031 21.8438C132.523 22.6016 131.844 23.1914 130.992 23.6133C130.148 24.0273 129.199 24.2344 128.145 24.2344ZM127.805 13.3711C127.023 13.3711 126.391 13.6445 125.906 14.1914C125.43 14.7383 125.125 15.5 124.992 16.4766H130.418V16.2656C130.355 15.3125 130.102 14.5938 129.656 14.1094C129.211 13.6172 128.594 13.3711 127.805 13.3711Z" fill="#737380"/>
<path d="M154.992 21.8438C154.359 22.6016 153.465 23.1914 152.309 23.6133C151.152 24.0273 149.871 24.2344 148.465 24.2344C146.988 24.2344 145.691 23.9141 144.574 23.2734C143.465 22.625 142.605 21.6875 141.996 20.4609C141.395 19.2344 141.086 17.793 141.07 16.1367V14.9766C141.07 13.2734 141.355 11.8008 141.926 10.5586C142.504 9.30859 143.332 8.35547 144.41 7.69922C145.496 7.03516 146.766 6.70312 148.219 6.70312C150.242 6.70312 151.824 7.1875 152.965 8.15625C154.105 9.11719 154.781 10.5195 154.992 12.3633H151.57C151.414 11.3867 151.066 10.6719 150.527 10.2188C149.996 9.76562 149.262 9.53906 148.324 9.53906C147.129 9.53906 146.219 9.98828 145.594 10.8867C144.969 11.7852 144.652 13.1211 144.645 14.8945V15.9844C144.645 17.7734 144.984 19.125 145.664 20.0391C146.344 20.9531 147.34 21.4102 148.652 21.4102C149.973 21.4102 150.914 21.1289 151.477 20.5664V17.625H148.277V15.0352H154.992V21.8438ZM161.203 24H157.805V11.3203H161.203V24ZM157.605 8.03906C157.605 7.53125 157.773 7.11328 158.109 6.78516C158.453 6.45703 158.918 6.29297 159.504 6.29297C160.082 6.29297 160.543 6.45703 160.887 6.78516C161.23 7.11328 161.402 7.53125 161.402 8.03906C161.402 8.55469 161.227 8.97656 160.875 9.30469C160.531 9.63281 160.074 9.79688 159.504 9.79688C158.934 9.79688 158.473 9.63281 158.121 9.30469C157.777 8.97656 157.605 8.55469 157.605 8.03906ZM168.059 8.20312V11.3203H170.227V13.8047H168.059V20.1328C168.059 20.6016 168.148 20.9375 168.328 21.1406C168.508 21.3438 168.852 21.4453 169.359 21.4453C169.734 21.4453 170.066 21.418 170.355 21.3633V23.9297C169.691 24.1328 169.008 24.2344 168.305 24.2344C165.93 24.2344 164.719 23.0352 164.672 20.6367V13.8047H162.82V11.3203H164.672V8.20312H168.059ZM175.418 12.7031C176.316 11.625 177.445 11.0859 178.805 11.0859C181.555 11.0859 182.949 12.6836 182.988 15.8789V24H179.602V15.9727C179.602 15.2461 179.445 14.7109 179.133 14.3672C178.82 14.0156 178.301 13.8398 177.574 13.8398C176.582 13.8398 175.863 14.2227 175.418 14.9883V24H172.031V6H175.418V12.7031ZM193.137 22.7109C192.301 23.7266 191.145 24.2344 189.668 24.2344C188.309 24.2344 187.27 23.8438 186.551 23.0625C185.84 22.2812 185.477 21.1367 185.461 19.6289V11.3203H188.848V19.5117C188.848 20.832 189.449 21.4922 190.652 21.4922C191.801 21.4922 192.59 21.0938 193.02 20.2969V11.3203H196.418V24H193.23L193.137 22.7109ZM210.398 17.7773C210.398 19.8086 209.965 21.3945 209.098 22.5352C208.23 23.668 207.02 24.2344 205.465 24.2344C204.09 24.2344 202.992 23.707 202.172 22.6523L202.02 24H198.973V6H202.359V12.457C203.141 11.543 204.168 11.0859 205.441 11.0859C206.988 11.0859 208.199 11.6562 209.074 12.7969C209.957 13.9297 210.398 15.5273 210.398 17.5898V17.7773ZM207.012 17.5312C207.012 16.25 206.809 15.3164 206.402 14.7305C205.996 14.1367 205.391 13.8398 204.586 13.8398C203.508 13.8398 202.766 14.2812 202.359 15.1641V20.168C202.773 21.0586 203.523 21.5039 204.609 21.5039C205.703 21.5039 206.422 20.9648 206.766 19.8867C206.93 19.3711 207.012 18.5859 207.012 17.5312Z" fill="#121214"/>
<path fill-rule="evenodd" clip-rule="evenodd" d="M0 16C0 7.16002 7.16002 0 16 0C24.84 0 32 7.16002 31.9999 16C31.9999 24.832 24.8399 31.9999 16 31.9999C7.16002 31.9999 0 24.832 0 16ZM6.39997 25.6L19.504 19.504L25.6 6.39997L12.496 12.496L6.39997 25.6ZM17.76 16C17.76 16.968 16.9759 17.76 16 17.76C15.032 17.76 14.2399 16.968 14.2399 16C14.2399 15.0319 15.0319 14.2399 16 14.2399C16.976 14.2399 17.76 15.0319 17.76 16Z" fill="#121214"/>
</svg>
